<?xml version="1.0" encoding="UTF-8"?>
<!DOCTYPE svg PUBLIC "-//W3C//DTD SVG 1.1//EN" "http://www.w3.org/Graphics/SVG/1.1/DTD/svg11.dtd">
<!-- Creator: CorelDRAW 2019 (64-Bit Оценочная версия) -->
<svg xmlns="http://www.w3.org/2000/svg" xml:space="preserve" version="1.1" style="shape-rendering:geometricPrecision; text-rendering:geometricPrecision; image-rendering:optimizeQuality; fill-rule:evenodd; clip-rule:evenodd"
viewBox="0 0 12530.88 3386.67"
 xmlns:xlink="http://www.w3.org/1999/xlink">
 <defs>
  <style type="text/css">
   <![CDATA[
    .fil0 {fill:#5B5B5B}
    .fil1 {fill:#2971FF}
    .fil2 {fill:#5B5B5B;fill-rule:nonzero}
   ]]>
  </style>
 </defs>
 <g id="Слой_x0020_1">
  <metadata id="CorelCorpID_0Corel-Layer"/>
  <g id="_1113059744">
   <path class="fil0" d="M3329.46 1257.17c37.01,139.17 56.82,285.36 56.82,436.19 0,935.21 -758.1,1693.31 -1693.35,1693.31 -807.08,0 -1482.22,-564.67 -1652.05,-1320.5l1064.6 0 -111.94 663.62 435.16 0 112.28 -663.62 761.65 0 0 -402.52 -693.96 0 68.47 -406.48 1652.32 0z"/>
   <path class="fil1" d="M1692.93 0c630.08,0 1179.72,344.14 1471.35,854.65l-1853.69 0 -136.95 808.31 -1173.64 0.48c15.97,-921.4 767.74,-1663.44 1692.93,-1663.44z"/>
   <path class="fil2" d="M4976.88 1182.53l0 -253.23 -991.01 0 0 1528.07 283.79 0 0 -663.62 536.31 0 0 -253.22 -536.31 0 0 -358 707.22 0zm1443.72 -54.58c-152.78,-150.6 -344.9,-224.84 -574.12,-224.84 -229.2,0 -421.31,74.23 -574.1,224.84 -152.8,150.62 -229.22,338.35 -229.22,565.38 0,227.03 76.42,414.77 229.22,565.38 152.8,150.62 344.9,224.86 574.1,224.86 229.22,0 421.32,-74.24 574.12,-224.86 152.81,-150.61 229.22,-338.35 229.22,-565.38 0,-227.03 -76.43,-414.78 -229.22,-565.38zm-61.12 565.38c0,154.99 -47.49,284.32 -141.89,384.21 -93.32,98.72 -218.29,148.44 -368.92,148.44 -148.44,0 -273.42,-49.71 -371.1,-150.63 -98.76,-102.07 -146.25,-229.22 -146.25,-382.02 0,-154.99 48.01,-283.81 141.89,-382.01 96.01,-100.43 220.47,-150.63 371.1,-150.63 146.25,0 267.97,50.75 366.73,152.81 97.68,100.93 148.44,227.03 148.44,379.83zm793.91 -280.2l4.36 0 560.43 1044.24 327.44 0 0 -1528.07 -285.97 0 0 1044.25 -4.36 0 -558.25 -1044.25 -327.44 0 0 1528.07 283.79 0 0 -1044.24zm1496.21 376.25l611.22 0 0 -253.22 -611.22 0 0 -353.63 663.61 0 0 -253.23 -947.4 0 0 1528.07 973.6 0 0 -253.23 -689.81 0 0 -414.76zm2178.58 667.99l-401.67 -670.17c192.1,-61.12 301.25,-205.19 301.25,-406.03 0,-301.24 -203.13,-451.87 -611.23,-451.87l-499.89 0 0 1528.07 283.79 0 0 -619.96 248.85 0 360.19 619.96 318.71 0zm-711.65 -1279.22c213.94,0 320.9,67.68 320.9,203.02 0,137.52 -107.08,205.2 -318.71,205.2l-218.29 0 0 -408.22 216.1 0zm2185.14 -50.2c-152.69,-150.51 -344.91,-224.84 -574.12,-224.84 -229.2,0 -421.36,74.27 -574.11,224.84 -152.75,150.57 -229.21,338.35 -229.21,565.38 0,227.03 76.41,414.77 229.21,565.38 152.8,150.62 344.91,224.86 574.11,224.86 229.21,0 421.32,-74.24 574.12,-224.86 152.8,-150.61 229.21,-338.35 229.21,-565.38 0,-227.03 -76.52,-414.87 -229.21,-565.38zm-61.13 565.38c0,154.99 -47.53,284.36 -141.89,384.21 -93.27,98.68 -218.29,148.44 -368.91,148.44 -148.44,0 -273.47,-49.75 -371.11,-150.63 -98.71,-102.02 -146.25,-229.22 -146.25,-382.02 0,-154.99 48.06,-283.86 141.89,-382.01 95.97,-100.38 220.48,-150.63 371.1,-150.63 146.26,0 268.02,50.79 366.73,152.81 97.64,100.88 148.44,227.03 148.44,379.83z"/>
  </g>
 </g>
</svg>
